<?xml version="1.0" encoding="UTF-8" standalone="no"?>
<!DOCTYPE svg PUBLIC "-//W3C//DTD SVG 1.1//EN"
 "http://www.w3.org/Graphics/SVG/1.1/DTD/svg11.dtd">
<!-- Generated by graphviz version 2.43.0 (0)
 -->
<!-- Title: controllers_diagram Pages: 1 -->
<svg width="382pt" height="237pt"
 viewBox="0.00 0.00 382.00 237.00" xmlns="http://www.w3.org/2000/svg" xmlns:xlink="http://www.w3.org/1999/xlink">
<g id="graph0" class="graph" transform="scale(1 1) rotate(0) translate(4 233)">
<title>controllers_diagram</title>
<polygon fill="transparent" stroke="transparent" points="-4,4 -4,-233 378,-233 378,4 -4,4"/>
<!-- _diagram_info -->
<g id="node1" class="node">
<title>_diagram_info</title>
<text text-anchor="start" x="8" y="-63.6" font-family="Times,serif" font-size="13.00">Controllers diagram</text>
<text text-anchor="start" x="8" y="-49.6" font-family="Times,serif" font-size="13.00">Date: Apr 20 2024 &#45; 02:08</text>
<text text-anchor="start" x="8" y="-35.6" font-family="Times,serif" font-size="13.00">Migration version: 20240420045838</text>
<text text-anchor="start" x="8" y="-21.6" font-family="Times,serif" font-size="13.00">Generated by RailRoady 1.6.0</text>
<text text-anchor="start" x="8" y="-7.6" font-family="Times,serif" font-size="13.00">http://railroady.prestonlee.com</text>
</g>
<!-- ApplicationController -->
<g id="node2" class="node">
<title>ApplicationController</title>
<path fill="none" stroke="black" d="M216,-119.5C216,-119.5 362,-119.5 362,-119.5 368,-119.5 374,-125.5 374,-131.5 374,-131.5 374,-216.5 374,-216.5 374,-222.5 368,-228.5 362,-228.5 362,-228.5 216,-228.5 216,-228.5 210,-228.5 204,-222.5 204,-216.5 204,-216.5 204,-131.5 204,-131.5 204,-125.5 210,-119.5 216,-119.5"/>
<text text-anchor="middle" x="289" y="-213.3" font-family="Times,serif" font-size="14.00">ApplicationController</text>
<polyline fill="none" stroke="black" points="204,-205.5 374,-205.5 "/>
<polyline fill="none" stroke="black" points="204,-181.5 374,-181.5 "/>
<polyline fill="none" stroke="black" points="204,-157.5 374,-157.5 "/>
<text text-anchor="start" x="212" y="-142.3" font-family="Times,serif" font-size="14.00">_layout</text>
<text text-anchor="start" x="212" y="-127.3" font-family="Times,serif" font-size="14.00">_layout_from_proc</text>
</g>
</g>
</svg>
