<?xml version="1.0" encoding="UTF-8" standalone="no"?>
<!DOCTYPE svg PUBLIC "-//W3C//DTD SVG 1.1//EN"
 "http://www.w3.org/Graphics/SVG/1.1/DTD/svg11.dtd">
<!-- Generated by graphviz version 2.43.0 (0)
 -->
<!-- Title: models_diagram Pages: 1 -->
<svg width="1156pt" height="447pt"
 viewBox="0.00 0.00 1155.50 447.00" xmlns="http://www.w3.org/2000/svg" xmlns:xlink="http://www.w3.org/1999/xlink">
<g id="graph0" class="graph" transform="scale(1 1) rotate(0) translate(4 443)">
<title>models_diagram</title>
<polygon fill="transparent" stroke="transparent" points="-4,4 -4,-443 1151.5,-443 1151.5,4 -4,4"/>
<!-- _diagram_info -->
<g id="node1" class="node">
<title>_diagram_info</title>
<text text-anchor="start" x="8" y="-424.6" font-family="Times,serif" font-size="13.00">Models diagram</text>
<text text-anchor="start" x="8" y="-410.6" font-family="Times,serif" font-size="13.00">Date: Apr 20 2024 &#45; 02:08</text>
<text text-anchor="start" x="8" y="-396.6" font-family="Times,serif" font-size="13.00">Migration version: 20240420045838</text>
<text text-anchor="start" x="8" y="-382.6" font-family="Times,serif" font-size="13.00">Generated by RailRoady 1.6.0</text>
<text text-anchor="start" x="8" y="-368.6" font-family="Times,serif" font-size="13.00">http://railroady.prestonlee.com</text>
</g>
<!-- ApplicationRecord -->
<g id="node2" class="node">
<title>ApplicationRecord</title>
<ellipse fill="none" stroke="black" cx="372.5" cy="-400" rx="95.58" ry="18"/>
<text text-anchor="middle" x="372.5" y="-396.3" font-family="Times,serif" font-size="14.00">ApplicationRecord</text>
</g>
<!-- Computer -->
<g id="node3" class="node">
<title>Computer</title>
<path fill="none" stroke="black" d="M498.5,-362C498.5,-362 662.5,-362 662.5,-362 668.5,-362 674.5,-368 674.5,-374 674.5,-374 674.5,-426 674.5,-426 674.5,-432 668.5,-438 662.5,-438 662.5,-438 498.5,-438 498.5,-438 492.5,-438 486.5,-432 486.5,-426 486.5,-426 486.5,-374 486.5,-374 486.5,-368 492.5,-362 498.5,-362"/>
<text text-anchor="middle" x="580.5" y="-422.8" font-family="Times,serif" font-size="14.00">Computer</text>
<polyline fill="none" stroke="black" points="486.5,-415 674.5,-415 "/>
<text text-anchor="start" x="494.5" y="-399.8" font-family="Times,serif" font-size="14.00">id :INTEGER</text>
<text text-anchor="start" x="494.5" y="-384.8" font-family="Times,serif" font-size="14.00">created_at :datetime(6)</text>
<text text-anchor="start" x="494.5" y="-369.8" font-family="Times,serif" font-size="14.00">updated_at :datetime(6)</text>
</g>
<!-- Customer -->
<g id="node4" class="node">
<title>Customer</title>
<path fill="none" stroke="black" d="M67.5,-196C67.5,-196 231.5,-196 231.5,-196 237.5,-196 243.5,-202 243.5,-208 243.5,-208 243.5,-275 243.5,-275 243.5,-281 237.5,-287 231.5,-287 231.5,-287 67.5,-287 67.5,-287 61.5,-287 55.5,-281 55.5,-275 55.5,-275 55.5,-208 55.5,-208 55.5,-202 61.5,-196 67.5,-196"/>
<text text-anchor="middle" x="149.5" y="-271.8" font-family="Times,serif" font-size="14.00">Customer</text>
<polyline fill="none" stroke="black" points="55.5,-264 243.5,-264 "/>
<text text-anchor="start" x="63.5" y="-248.8" font-family="Times,serif" font-size="14.00">id :INTEGER</text>
<text text-anchor="start" x="63.5" y="-233.8" font-family="Times,serif" font-size="14.00">name :varchar</text>
<text text-anchor="start" x="63.5" y="-218.8" font-family="Times,serif" font-size="14.00">created_at :datetime(6)</text>
<text text-anchor="start" x="63.5" y="-203.8" font-family="Times,serif" font-size="14.00">updated_at :datetime(6)</text>
</g>
<!-- Computer&#45;&gt;Customer -->
<g id="edge6" class="edge">
<title>Computer&#45;&gt;Customer</title>
<path fill="none" stroke="#005536" d="M476.62,-361C377.32,-337.2 342.2,-364.73 252.5,-325 235,-317.25 217.96,-305.77 202.93,-293.83"/>
<polygon fill="#005536" stroke="#005536" points="476.74,-361.03 485.34,-367.83 481.59,-362.24 486.44,-363.46 486.44,-363.46 486.44,-363.46 481.59,-362.24 487.53,-359.1 476.74,-361.03 476.74,-361.03"/>
<polygon fill="#005536" stroke="#005536" points="202.54,-293.5 197.66,-283.68 198.67,-290.33 194.8,-287.16 194.8,-287.16 194.8,-287.16 198.67,-290.33 191.95,-290.64 202.54,-293.5 202.54,-293.5"/>
</g>
<!-- Motherboard -->
<g id="node5" class="node">
<title>Motherboard</title>
<path fill="none" stroke="black" d="M273.5,-158.5C273.5,-158.5 479.5,-158.5 479.5,-158.5 485.5,-158.5 491.5,-164.5 491.5,-170.5 491.5,-170.5 491.5,-312.5 491.5,-312.5 491.5,-318.5 485.5,-324.5 479.5,-324.5 479.5,-324.5 273.5,-324.5 273.5,-324.5 267.5,-324.5 261.5,-318.5 261.5,-312.5 261.5,-312.5 261.5,-170.5 261.5,-170.5 261.5,-164.5 267.5,-158.5 273.5,-158.5"/>
<text text-anchor="middle" x="376.5" y="-309.3" font-family="Times,serif" font-size="14.00">Motherboard</text>
<polyline fill="none" stroke="black" points="261.5,-301.5 491.5,-301.5 "/>
<text text-anchor="start" x="269.5" y="-286.3" font-family="Times,serif" font-size="14.00">id :INTEGER</text>
<text text-anchor="start" x="269.5" y="-271.3" font-family="Times,serif" font-size="14.00">name :varchar</text>
<text text-anchor="start" x="269.5" y="-256.3" font-family="Times,serif" font-size="14.00">processor_supported :varchar</text>
<text text-anchor="start" x="269.5" y="-241.3" font-family="Times,serif" font-size="14.00">ram_supported :varchar</text>
<text text-anchor="start" x="269.5" y="-226.3" font-family="Times,serif" font-size="14.00">slot :INTEGER</text>
<text text-anchor="start" x="269.5" y="-211.3" font-family="Times,serif" font-size="14.00">integrated_video :boolean</text>
<text text-anchor="start" x="269.5" y="-196.3" font-family="Times,serif" font-size="14.00">computer_id :INTEGER</text>
<text text-anchor="start" x="269.5" y="-181.3" font-family="Times,serif" font-size="14.00">created_at :datetime(6)</text>
<text text-anchor="start" x="269.5" y="-166.3" font-family="Times,serif" font-size="14.00">updated_at :datetime(6)</text>
</g>
<!-- Computer&#45;&gt;Motherboard -->
<g id="edge2" class="edge">
<title>Computer&#45;&gt;Motherboard</title>
<path fill="none" stroke="#eebba1" d="M524.02,-355.67C513.85,-347.87 502.91,-339.48 491.76,-330.92"/>
<polygon fill="#eebba1" stroke="#eebba1" points="524.22,-355.82 529.42,-365.48 528.19,-358.87 532.15,-361.91 532.15,-361.91 532.15,-361.91 528.19,-358.87 534.89,-358.34 524.22,-355.82 524.22,-355.82"/>
<polygon fill="#eebba1" stroke="#eebba1" points="491.54,-330.76 486.35,-321.1 487.58,-327.71 483.61,-324.67 483.61,-324.67 483.61,-324.67 487.58,-327.71 480.87,-328.24 491.54,-330.76 491.54,-330.76"/>
</g>
<!-- Order -->
<g id="node6" class="node">
<title>Order</title>
<path fill="none" stroke="black" d="M252.5,-0.5C252.5,-0.5 416.5,-0.5 416.5,-0.5 422.5,-0.5 428.5,-6.5 428.5,-12.5 428.5,-12.5 428.5,-109.5 428.5,-109.5 428.5,-115.5 422.5,-121.5 416.5,-121.5 416.5,-121.5 252.5,-121.5 252.5,-121.5 246.5,-121.5 240.5,-115.5 240.5,-109.5 240.5,-109.5 240.5,-12.5 240.5,-12.5 240.5,-6.5 246.5,-0.5 252.5,-0.5"/>
<text text-anchor="middle" x="334.5" y="-106.3" font-family="Times,serif" font-size="14.00">Order</text>
<polyline fill="none" stroke="black" points="240.5,-98.5 428.5,-98.5 "/>
<text text-anchor="start" x="248.5" y="-83.3" font-family="Times,serif" font-size="14.00">id :INTEGER</text>
<text text-anchor="start" x="248.5" y="-68.3" font-family="Times,serif" font-size="14.00">valid :boolean</text>
<text text-anchor="start" x="248.5" y="-53.3" font-family="Times,serif" font-size="14.00">customer_id :INTEGER</text>
<text text-anchor="start" x="248.5" y="-38.3" font-family="Times,serif" font-size="14.00">computer_id :INTEGER</text>
<text text-anchor="start" x="248.5" y="-23.3" font-family="Times,serif" font-size="14.00">created_at :datetime(6)</text>
<text text-anchor="start" x="248.5" y="-8.3" font-family="Times,serif" font-size="14.00">updated_at :datetime(6)</text>
</g>
<!-- Computer&#45;&gt;Order -->
<g id="edge5" class="edge">
<title>Computer&#45;&gt;Order</title>
<path fill="none" stroke="#e42ce9" d="M551.58,-352.84C546.73,-343.84 542.11,-334.3 538.5,-325 510.98,-254.03 545.66,-219.28 500.5,-158 484.23,-135.92 461.24,-118.11 437.54,-104.11"/>
<polygon fill="#e42ce9" stroke="#e42ce9" points="551.62,-352.91 552.56,-363.83 554.05,-357.28 556.49,-361.64 556.49,-361.64 556.49,-361.64 554.05,-357.28 560.42,-359.45 551.62,-352.91 551.62,-352.91"/>
<polygon fill="#e42ce9" stroke="#e42ce9" points="437.48,-104.07 431.02,-95.21 433.13,-101.6 428.79,-99.12 428.79,-99.12 428.79,-99.12 433.13,-101.6 426.56,-103.03 437.48,-104.07 437.48,-104.07"/>
</g>
<!-- Processor -->
<g id="node7" class="node">
<title>Processor</title>
<path fill="none" stroke="black" d="M559.5,-181C559.5,-181 723.5,-181 723.5,-181 729.5,-181 735.5,-187 735.5,-193 735.5,-193 735.5,-290 735.5,-290 735.5,-296 729.5,-302 723.5,-302 723.5,-302 559.5,-302 559.5,-302 553.5,-302 547.5,-296 547.5,-290 547.5,-290 547.5,-193 547.5,-193 547.5,-187 553.5,-181 559.5,-181"/>
<text text-anchor="middle" x="641.5" y="-286.8" font-family="Times,serif" font-size="14.00">Processor</text>
<polyline fill="none" stroke="black" points="547.5,-279 735.5,-279 "/>
<text text-anchor="start" x="555.5" y="-263.8" font-family="Times,serif" font-size="14.00">id :INTEGER</text>
<text text-anchor="start" x="555.5" y="-248.8" font-family="Times,serif" font-size="14.00">name :varchar</text>
<text text-anchor="start" x="555.5" y="-233.8" font-family="Times,serif" font-size="14.00">brand :varchar</text>
<text text-anchor="start" x="555.5" y="-218.8" font-family="Times,serif" font-size="14.00">computer_id :INTEGER</text>
<text text-anchor="start" x="555.5" y="-203.8" font-family="Times,serif" font-size="14.00">created_at :datetime(6)</text>
<text text-anchor="start" x="555.5" y="-188.8" font-family="Times,serif" font-size="14.00">updated_at :datetime(6)</text>
</g>
<!-- Computer&#45;&gt;Processor -->
<g id="edge1" class="edge">
<title>Computer&#45;&gt;Processor</title>
<path fill="none" stroke="#5c876e" d="M598.66,-352.41C603.65,-339.62 609.16,-325.48 614.52,-311.71"/>
<polygon fill="#5c876e" stroke="#5c876e" points="598.59,-352.59 590.76,-360.28 596.77,-357.25 594.96,-361.91 594.96,-361.91 594.96,-361.91 596.77,-357.25 599.15,-363.55 598.59,-352.59 598.59,-352.59"/>
<polygon fill="#5c876e" stroke="#5c876e" points="614.57,-311.58 622.4,-303.9 616.39,-306.92 618.21,-302.26 618.21,-302.26 618.21,-302.26 616.39,-306.92 614.01,-300.63 614.57,-311.58 614.57,-311.58"/>
</g>
<!-- Ram -->
<g id="node8" class="node">
<title>Ram</title>
<path fill="none" stroke="black" d="M765.5,-181C765.5,-181 929.5,-181 929.5,-181 935.5,-181 941.5,-187 941.5,-193 941.5,-193 941.5,-290 941.5,-290 941.5,-296 935.5,-302 929.5,-302 929.5,-302 765.5,-302 765.5,-302 759.5,-302 753.5,-296 753.5,-290 753.5,-290 753.5,-193 753.5,-193 753.5,-187 759.5,-181 765.5,-181"/>
<text text-anchor="middle" x="847.5" y="-286.8" font-family="Times,serif" font-size="14.00">Ram</text>
<polyline fill="none" stroke="black" points="753.5,-279 941.5,-279 "/>
<text text-anchor="start" x="761.5" y="-263.8" font-family="Times,serif" font-size="14.00">id :INTEGER</text>
<text text-anchor="start" x="761.5" y="-248.8" font-family="Times,serif" font-size="14.00">name :varchar</text>
<text text-anchor="start" x="761.5" y="-233.8" font-family="Times,serif" font-size="14.00">size :varchar</text>
<text text-anchor="start" x="761.5" y="-218.8" font-family="Times,serif" font-size="14.00">computer_id :INTEGER</text>
<text text-anchor="start" x="761.5" y="-203.8" font-family="Times,serif" font-size="14.00">created_at :datetime(6)</text>
<text text-anchor="start" x="761.5" y="-188.8" font-family="Times,serif" font-size="14.00">updated_at :datetime(6)</text>
</g>
<!-- Computer&#45;&gt;Ram -->
<g id="edge4" class="edge">
<title>Computer&#45;&gt;Ram</title>
<path fill="none" stroke="#c620db" d="M682.9,-357.6C703.78,-347.83 725.24,-336.8 744.5,-325 752.85,-319.88 761.29,-314.18 769.54,-308.22"/>
<polygon fill="#c620db" stroke="#c620db" points="682.75,-357.66 671.79,-357.76 678.21,-359.75 673.67,-361.85 673.67,-361.85 673.67,-361.85 678.21,-359.75 675.55,-365.93 682.75,-357.66 682.75,-357.66"/>
<polygon fill="#c620db" stroke="#c620db" points="769.68,-308.12 780.4,-305.81 773.71,-305.15 777.73,-302.19 777.73,-302.19 777.73,-302.19 773.71,-305.15 775.06,-298.56 769.68,-308.12 769.68,-308.12"/>
</g>
<!-- VideoCard -->
<g id="node9" class="node">
<title>VideoCard</title>
<path fill="none" stroke="black" d="M971.5,-188.5C971.5,-188.5 1135.5,-188.5 1135.5,-188.5 1141.5,-188.5 1147.5,-194.5 1147.5,-200.5 1147.5,-200.5 1147.5,-282.5 1147.5,-282.5 1147.5,-288.5 1141.5,-294.5 1135.5,-294.5 1135.5,-294.5 971.5,-294.5 971.5,-294.5 965.5,-294.5 959.5,-288.5 959.5,-282.5 959.5,-282.5 959.5,-200.5 959.5,-200.5 959.5,-194.5 965.5,-188.5 971.5,-188.5"/>
<text text-anchor="middle" x="1053.5" y="-279.3" font-family="Times,serif" font-size="14.00">VideoCard</text>
<polyline fill="none" stroke="black" points="959.5,-271.5 1147.5,-271.5 "/>
<text text-anchor="start" x="967.5" y="-256.3" font-family="Times,serif" font-size="14.00">id :INTEGER</text>
<text text-anchor="start" x="967.5" y="-241.3" font-family="Times,serif" font-size="14.00">name :varchar</text>
<text text-anchor="start" x="967.5" y="-226.3" font-family="Times,serif" font-size="14.00">computer_id :INTEGER</text>
<text text-anchor="start" x="967.5" y="-211.3" font-family="Times,serif" font-size="14.00">created_at :datetime(6)</text>
<text text-anchor="start" x="967.5" y="-196.3" font-family="Times,serif" font-size="14.00">updated_at :datetime(6)</text>
</g>
<!-- Computer&#45;&gt;VideoCard -->
<g id="edge3" class="edge">
<title>Computer&#45;&gt;VideoCard</title>
<path fill="none" stroke="#f1d07a" d="M684.92,-391.46C761.4,-382.81 866.12,-364.35 950.5,-325 964.21,-318.61 977.7,-310.02 990.17,-300.8"/>
<polygon fill="#f1d07a" stroke="#f1d07a" points="684.74,-391.48 674.31,-388.09 679.77,-392.02 674.8,-392.56 674.8,-392.56 674.8,-392.56 679.77,-392.02 675.29,-397.04 684.74,-391.48 684.74,-391.48"/>
<polygon fill="#f1d07a" stroke="#f1d07a" points="990.27,-300.73 1000.95,-298.24 994.24,-297.7 998.22,-294.67 998.22,-294.67 998.22,-294.67 994.24,-297.7 995.49,-291.09 990.27,-300.73 990.27,-300.73"/>
</g>
<!-- Customer&#45;&gt;Order -->
<g id="edge7" class="edge">
<title>Customer&#45;&gt;Order</title>
<path fill="none" stroke="#65904a" d="M202.94,-188.94C222.38,-170.18 244.66,-148.69 265.28,-128.79"/>
<polygon fill="#65904a" stroke="#65904a" points="202.9,-188.97 192.58,-192.68 199.3,-192.45 195.71,-195.92 195.71,-195.92 195.71,-195.92 199.3,-192.45 198.83,-199.16 202.9,-188.97 202.9,-188.97"/>
<polygon fill="#65904a" stroke="#65904a" points="265.3,-128.77 275.62,-125.06 268.9,-125.3 272.5,-121.82 272.5,-121.82 272.5,-121.82 268.9,-125.3 269.37,-118.59 265.3,-128.77 265.3,-128.77"/>
</g>
</g>
</svg>
