<?xml version="1.0" encoding="UTF-8" standalone="no"?>
<!DOCTYPE svg PUBLIC "-//W3C//DTD SVG 1.1//EN"
 "http://www.w3.org/Graphics/SVG/1.1/DTD/svg11.dtd">
<!-- Generated by graphviz version 2.43.0 (0)
 -->
<!-- Title: models_diagram Pages: 1 -->
<svg width="869pt" height="230pt"
 viewBox="0.00 0.00 868.64 230.00" xmlns="http://www.w3.org/2000/svg" xmlns:xlink="http://www.w3.org/1999/xlink">
<g id="graph0" class="graph" transform="scale(1 1) rotate(0) translate(4 226)">
<title>models_diagram</title>
<polygon fill="transparent" stroke="transparent" points="-4,4 -4,-226 864.64,-226 864.64,4 -4,4"/>
<!-- _diagram_info -->
<g id="node1" class="node">
<title>_diagram_info</title>
<text text-anchor="start" x="8" y="-207.6" font-family="Times,serif" font-size="13.00">Models diagram</text>
<text text-anchor="start" x="8" y="-193.6" font-family="Times,serif" font-size="13.00">Date: Apr 20 2024 &#45; 02:08</text>
<text text-anchor="start" x="8" y="-179.6" font-family="Times,serif" font-size="13.00">Migration version: 20240420045838</text>
<text text-anchor="start" x="8" y="-165.6" font-family="Times,serif" font-size="13.00">Generated by RailRoady 1.6.0</text>
<text text-anchor="start" x="8" y="-151.6" font-family="Times,serif" font-size="13.00">http://railroady.prestonlee.com</text>
</g>
<!-- ApplicationRecord -->
<g id="node2" class="node">
<title>ApplicationRecord</title>
<ellipse fill="none" stroke="black" cx="372.5" cy="-183" rx="95.58" ry="18"/>
<text text-anchor="middle" x="372.5" y="-179.3" font-family="Times,serif" font-size="14.00">ApplicationRecord</text>
</g>
<!-- Computer -->
<g id="node3" class="node">
<title>Computer</title>
<ellipse fill="none" stroke="black" cx="543.5" cy="-183" rx="57.39" ry="18"/>
<text text-anchor="middle" x="543.5" y="-179.3" font-family="Times,serif" font-size="14.00">Computer</text>
</g>
<!-- Customer -->
<g id="node4" class="node">
<title>Customer</title>
<ellipse fill="none" stroke="black" cx="257.5" cy="-90" rx="55.79" ry="18"/>
<text text-anchor="middle" x="257.5" y="-86.3" font-family="Times,serif" font-size="14.00">Customer</text>
</g>
<!-- Computer&#45;&gt;Customer -->
<g id="edge6" class="edge">
<title>Computer&#45;&gt;Customer</title>
<path fill="none" stroke="#2f941e" d="M511.41,-161C500.93,-154.83 489.01,-148.54 477.5,-144 411.7,-118.08 391.16,-124.95 322.5,-108 318.11,-106.92 313.57,-105.77 309.01,-104.61"/>
<polygon fill="#2f941e" stroke="#2f941e" points="511.66,-161.15 517.88,-170.18 515.94,-163.74 520.21,-166.34 520.21,-166.34 520.21,-166.34 515.94,-163.74 522.55,-162.49 511.66,-161.15 511.66,-161.15"/>
<polygon fill="#2f941e" stroke="#2f941e" points="308.75,-104.54 300.19,-97.7 303.91,-103.3 299.07,-102.05 299.07,-102.05 299.07,-102.05 303.91,-103.3 297.95,-106.41 308.75,-104.54 308.75,-104.54"/>
</g>
<!-- Motherboard -->
<g id="node5" class="node">
<title>Motherboard</title>
<ellipse fill="none" stroke="black" cx="402.5" cy="-90" rx="71.49" ry="18"/>
<text text-anchor="middle" x="402.5" y="-86.3" font-family="Times,serif" font-size="14.00">Motherboard</text>
</g>
<!-- Computer&#45;&gt;Motherboard -->
<g id="edge2" class="edge">
<title>Computer&#45;&gt;Motherboard</title>
<path fill="none" stroke="#22c902" d="M511.02,-161.03C488.57,-146.55 458.8,-127.33 436.11,-112.69"/>
<polygon fill="#22c902" stroke="#22c902" points="511.18,-161.14 517.14,-170.34 515.38,-163.85 519.58,-166.56 519.58,-166.56 519.58,-166.56 515.38,-163.85 522.02,-162.78 511.18,-161.14 511.18,-161.14"/>
<polygon fill="#22c902" stroke="#22c902" points="435.89,-112.55 429.93,-103.35 431.69,-109.84 427.49,-107.13 427.49,-107.13 427.49,-107.13 431.69,-109.84 425.05,-110.91 435.89,-112.55 435.89,-112.55"/>
</g>
<!-- Order -->
<g id="node6" class="node">
<title>Order</title>
<ellipse fill="none" stroke="black" cx="379.5" cy="-18" rx="38.19" ry="18"/>
<text text-anchor="middle" x="379.5" y="-14.3" font-family="Times,serif" font-size="14.00">Order</text>
</g>
<!-- Computer&#45;&gt;Order -->
<g id="edge5" class="edge">
<title>Computer&#45;&gt;Order</title>
<path fill="none" stroke="#5819ee" d="M533.83,-155.09C524.01,-130.86 506.78,-95.54 482.5,-72 464.67,-54.72 440.09,-41.78 419.41,-33.01"/>
<polygon fill="#5819ee" stroke="#5819ee" points="533.96,-155.41 533.39,-166.36 535.77,-160.07 537.59,-164.73 537.59,-164.73 537.59,-164.73 535.77,-160.07 541.78,-163.09 533.96,-155.41 533.96,-155.41"/>
<polygon fill="#5819ee" stroke="#5819ee" points="419.19,-32.92 411.61,-24.99 414.55,-31.04 409.92,-29.16 409.92,-29.16 409.92,-29.16 414.55,-31.04 408.23,-33.33 419.19,-32.92 419.19,-32.92"/>
</g>
<!-- Processor -->
<g id="node7" class="node">
<title>Processor</title>
<ellipse fill="none" stroke="black" cx="586.5" cy="-90" rx="56.59" ry="18"/>
<text text-anchor="middle" x="586.5" y="-86.3" font-family="Times,serif" font-size="14.00">Processor</text>
</g>
<!-- Computer&#45;&gt;Processor -->
<g id="edge1" class="edge">
<title>Computer&#45;&gt;Processor</title>
<path fill="none" stroke="#8e689d" d="M556.06,-155.43C561.76,-143.36 568.48,-129.13 574.16,-117.11"/>
<polygon fill="#8e689d" stroke="#8e689d" points="555.86,-155.84 547.52,-162.96 553.72,-160.36 551.59,-164.88 551.59,-164.88 551.59,-164.88 553.72,-160.36 555.66,-166.81 555.86,-155.84 555.86,-155.84"/>
<polygon fill="#8e689d" stroke="#8e689d" points="574.18,-117.08 582.52,-109.96 576.31,-112.56 578.45,-108.04 578.45,-108.04 578.45,-108.04 576.31,-112.56 574.38,-106.12 574.18,-117.08 574.18,-117.08"/>
</g>
<!-- Ram -->
<g id="node8" class="node">
<title>Ram</title>
<ellipse fill="none" stroke="black" cx="692.5" cy="-90" rx="31.7" ry="18"/>
<text text-anchor="middle" x="692.5" y="-86.3" font-family="Times,serif" font-size="14.00">Ram</text>
</g>
<!-- Computer&#45;&gt;Ram -->
<g id="edge4" class="edge">
<title>Computer&#45;&gt;Ram</title>
<path fill="none" stroke="#102867" d="M576.99,-161.54C602.74,-145.82 637.97,-124.3 662.73,-109.18"/>
<polygon fill="#102867" stroke="#102867" points="576.97,-161.56 566.09,-162.93 572.71,-164.16 568.44,-166.77 568.44,-166.77 568.44,-166.77 572.71,-164.16 570.78,-170.61 576.97,-161.56 576.97,-161.56"/>
<polygon fill="#102867" stroke="#102867" points="662.81,-109.13 673.69,-107.76 667.08,-106.53 671.34,-103.92 671.34,-103.92 671.34,-103.92 667.08,-106.53 669,-100.08 662.81,-109.13 662.81,-109.13"/>
</g>
<!-- VideoCard -->
<g id="node9" class="node">
<title>VideoCard</title>
<ellipse fill="none" stroke="black" cx="801.5" cy="-90" rx="59.29" ry="18"/>
<text text-anchor="middle" x="801.5" y="-86.3" font-family="Times,serif" font-size="14.00">VideoCard</text>
</g>
<!-- Computer&#45;&gt;VideoCard -->
<g id="edge3" class="edge">
<title>Computer&#45;&gt;VideoCard</title>
<path fill="none" stroke="#1e918c" d="M589.76,-165.68C636.3,-149.27 707.7,-124.08 754.5,-107.58"/>
<polygon fill="#1e918c" stroke="#1e918c" points="589.62,-165.73 578.69,-164.81 584.91,-167.4 580.19,-169.06 580.19,-169.06 580.19,-169.06 584.91,-167.4 581.69,-173.3 589.62,-165.73 589.62,-165.73"/>
<polygon fill="#1e918c" stroke="#1e918c" points="754.67,-107.52 765.6,-108.44 759.38,-105.86 764.1,-104.19 764.1,-104.19 764.1,-104.19 759.38,-105.86 762.6,-99.95 754.67,-107.52 754.67,-107.52"/>
</g>
<!-- Customer&#45;&gt;Order -->
<g id="edge7" class="edge">
<title>Customer&#45;&gt;Order</title>
<path fill="none" stroke="#57189d" d="M292.41,-68.97C309.69,-59.06 330.41,-47.17 347.31,-37.47"/>
<polygon fill="#57189d" stroke="#57189d" points="292.35,-69.01 281.43,-70.08 288.01,-71.49 283.67,-73.98 283.67,-73.98 283.67,-73.98 288.01,-71.49 285.91,-77.89 292.35,-69.01 292.35,-69.01"/>
<polygon fill="#57189d" stroke="#57189d" points="347.58,-37.31 358.49,-36.24 351.92,-34.83 356.25,-32.34 356.25,-32.34 356.25,-32.34 351.92,-34.83 354.01,-28.43 347.58,-37.31 347.58,-37.31"/>
</g>
</g>
</svg>
